<?xml version="1.0" encoding="utf-8"?>
<!-- Generator: Adobe Illustrator 26.3.0, SVG Export Plug-In . SVG Version: 6.00 Build 0)  -->
<svg version="1.1" id="Layer_1" xmlns="http://www.w3.org/2000/svg" xmlns:xlink="http://www.w3.org/1999/xlink" x="0px" y="0px"
	 viewBox="0 0 565.8 166.2" style="enable-background:new 0 0 565.8 166.2;" xml:space="preserve">
<style type="text/css">
	.st0{fill:#575756;}
	.st1{fill:#008FD4;}
</style>
<g>
	<g>
		<g>
			<path class="st0" d="M289.9,27.9c0,10.2-5.8,15.6-15.9,15.6c-10.4,0-16.6-4.8-16.6-15.6V2.1h5.4v25.8c0,7.1,4.1,11,11.2,11
				c6.8,0,10.5-3.9,10.5-11V2.1h5.4V27.9z"/>
			<path class="st0" d="M297.8,13.2h4.5v4.6h0.1c2-3.6,5.3-5.3,9.5-5.3c7.7,0,10.1,4.4,10.1,10.7v19.3h-4.8V22.7
				c0-3.6-2.3-5.9-5.9-5.9c-5.8,0-8.7,3.9-8.7,9.2v16.5h-4.8L297.8,13.2L297.8,13.2z"/>
			<path class="st0" d="M334.3,7.9h-4.8V2h4.8V7.9z M329.5,13.2h4.8v29.3h-4.8V13.2z"/>
			<path class="st0" d="M355,42.5h-5.2l-10.9-29.3h5.4l8.2,24.4h0.1l8-24.4h5L355,42.5z"/>
			<path class="st0" d="M395.1,33.2c-1.3,6.5-5.9,10-12.5,10c-9.3,0-13.8-6.5-14-15.4c0-8.8,5.8-15.2,13.8-15.2
				c10.4,0,13.5,9.7,13.2,16.8h-22c-0.2,5.1,2.7,9.6,9.1,9.6c4,0,6.7-1.9,7.6-5.7L395.1,33.2L395.1,33.2z M390.5,25.1
				c-0.2-4.6-3.7-8.3-8.4-8.3c-5,0-8,3.8-8.4,8.3C373.7,25.1,390.5,25.1,390.5,25.1z"/>
			<path class="st0" d="M400.4,13.2h4.5v6.2h0.1c2.3-4.7,5.5-7,10.8-6.9v5.1c-7.8,0-10.6,4.4-10.6,11.8v13h-4.8V13.2z"/>
			<path class="st0" d="M422.3,33.3c0.2,4.3,3.9,5.7,7.9,5.7c3,0,7.1-0.7,7.1-4.4s-4.8-4.4-9.6-5.4c-4.8-1.1-9.6-2.7-9.6-8.3
				c0-5.9,5.8-8.3,10.9-8.3c6.5,0,11.6,2,12,9.2h-4.8c-0.3-3.7-3.6-4.9-6.8-4.9c-2.9,0-6.2,0.8-6.2,3.7c0,3.5,5.1,4,9.6,5.1
				c4.8,1.1,9.6,2.7,9.6,8.3c0,7-6.5,9.2-12.5,9.2c-6.6,0-12.1-2.7-12.4-9.9C417.5,33.3,422.3,33.3,422.3,33.3z"/>
			<path class="st0" d="M452.8,7.9H448V2h4.8V7.9z M448,13.2h4.8v29.3H448V13.2z"/>
			<path class="st0" d="M486.4,42.5h-4.8v-4h-0.1c-1.6,3.2-5.3,4.6-9.3,4.6c-9,0-13.5-7.1-13.5-15.4s4.4-15.2,13.4-15.2
				c3,0,7.3,1.1,9.5,4.6h0.1v-15h4.8v40.4H486.4z M472.8,38.9c6.5,0,8.9-5.6,8.9-11c0-5.8-2.6-11.1-9.2-11.1s-8.8,5.6-8.8,11.3
				C463.8,33.6,466.6,38.9,472.8,38.9z"/>
			<path class="st0" d="M519.8,42.4c-0.8,0.5-1.9,0.8-3.5,0.8c-2.5,0-4.1-1.4-4.1-4.5c-2.7,3.1-6.2,4.5-10.3,4.5
				c-5.3,0-9.7-2.4-9.7-8.2c0-6.6,4.9-8,9.9-9c5.3-1,9.9-0.7,9.9-4.3c0-4.2-3.5-4.9-6.5-4.9c-4.1,0-7.1,1.2-7.3,5.6h-4.8
				c0.3-7.3,5.9-9.8,12.4-9.8c5.3,0,11,1.2,11,8v15.1c0,2.3,0,3.3,1.5,3.3c0.4,0,0.8-0.1,1.5-0.3L519.8,42.4L519.8,42.4z M512,27.4
				c-1.9,1.4-5.5,1.4-8.7,2s-5.9,1.7-5.9,5.3c0,3.2,2.7,4.3,5.7,4.3c6.3,0,8.9-4,8.9-6.6V27.4z"/>
			<path class="st0" d="M550.4,42.5h-4.8v-4h-0.1c-1.6,3.2-5.3,4.6-9.3,4.6c-9,0-13.5-7.1-13.5-15.4s4.4-15.2,13.4-15.2
				c3,0,7.3,1.1,9.5,4.6h0.1v-15h4.8v40.4H550.4z M536.8,38.9c6.5,0,8.9-5.6,8.9-11c0-5.8-2.6-11.1-9.2-11.1
				c-6.6,0-8.8,5.6-8.8,11.3C527.8,33.6,530.6,38.9,536.8,38.9z"/>
		</g>
		<g>
			<path class="st0" d="M257.9,59.3H287V64h-23.5v13.4h21.9v4.7h-21.9v14.6h23.7v4.7h-29.3L257.9,59.3L257.9,59.3z"/>
			<path class="st0" d="M318.3,101.5h-4.7v-4.8h-0.1c-2.1,3.8-5.5,5.5-9.9,5.5c-8,0-10.5-4.6-10.5-11.1V71h5v20.6
				c0,3.7,2.4,6.1,6.2,6.1c6.1,0,9-4.1,9-9.6V71h5V101.5z"/>
			<path class="st0" d="M325.6,71h4.7v6.4h0.1c2.4-4.9,5.8-7.3,11.2-7.1v5.3c-8.1,0-11,4.6-11,12.3v13.6h-5L325.6,71L325.6,71z"/>
		</g>
		<g>
			<path class="st0" d="M357.4,70.3c9.7,0,14.8,7,14.8,16c0,8.9-5.1,15.9-14.8,15.9c-9.7,0-14.8-7-14.8-15.9
				C342.6,77.3,347.8,70.3,357.4,70.3z M357.4,97.7c5.2,0,9.5-4.1,9.5-11.5s-4.2-11.6-9.5-11.6s-9.5,4.1-9.5,11.6
				C347.9,93.6,352.2,97.7,357.4,97.7z"/>
			<path class="st0" d="M378.3,71h5v4.1h0.1c1.7-3.4,5.5-4.8,9.7-4.8c9.4,0,14,7.4,14,16s-4.6,15.9-13.9,15.9
				c-3.1,0-7.6-1.2-9.9-4.8h-0.1v15.8h-5L378.3,71L378.3,71z M392.5,74.7c-6.7,0-9.3,5.8-9.3,11.5c0,6,2.7,11.6,9.6,11.6
				c6.8,0,9.1-5.8,9.1-11.8C401.9,80.2,399,74.7,392.5,74.7z"/>
			<path class="st0" d="M439.1,91.8c-1.4,6.7-6.2,10.4-13,10.4c-9.7,0-14.3-6.7-14.6-16c0-9.1,6-15.9,14.3-15.9
				c10.8,0,14.1,10.1,13.8,17.5h-22.8c-0.2,5.3,2.8,10,9.5,10c4.1,0,7-2,7.9-6H439.1z M434.3,83.3c-0.2-4.8-3.8-8.6-8.8-8.6
				c-5.2,0-8.4,4-8.7,8.6H434.3z"/>
			<path class="st0" d="M471.8,101.3c-0.9,0.5-2,0.8-3.6,0.8c-2.6,0-4.2-1.4-4.2-4.7c-2.8,3.2-6.5,4.7-10.7,4.7
				c-5.5,0-10.1-2.5-10.1-8.6c0-6.9,5.1-8.4,10.3-9.4c5.5-1.1,10.3-0.7,10.3-4.5c0-4.4-3.6-5.1-6.8-5.1c-4.2,0-7.4,1.3-7.6,5.8h-5
				c0.3-7.6,6.1-10.2,12.9-10.2c5.5,0,11.4,1.2,11.4,8.4v15.7c0,2.4,0,3.4,1.6,3.4c0.4,0,0.9-0.1,1.5-0.3L471.8,101.3L471.8,101.3z
				 M463.7,85.7c-1.9,1.4-5.7,1.5-9.1,2.1c-3.3,0.6-6.1,1.8-6.1,5.5c0,3.3,2.8,4.5,5.9,4.5c6.6,0,9.3-4.1,9.3-6.9L463.7,85.7
				L463.7,85.7z"/>
		</g>
		<g>
			<path class="st0" d="M283,165.4h-4.8v-4h-0.1c-1.6,3.2-5.3,4.6-9.3,4.6c-9,0-13.5-7.1-13.5-15.4c0-8.3,4.4-15.2,13.4-15.2
				c3,0,7.3,1.1,9.5,4.6h0.1v-15.1h4.8v40.5L283,165.4L283,165.4z M269.4,161.9c6.5,0,8.9-5.6,8.9-11c0-5.8-2.6-11.1-9.2-11.1
				s-8.8,5.6-8.8,11.3C260.4,156.6,263.2,161.9,269.4,161.9z"/>
			<path class="st0" d="M315.4,156.2c-1.3,6.5-5.9,10-12.5,10c-9.3,0-13.8-6.5-14-15.4c0-8.8,5.8-15.2,13.8-15.2
				c10.4,0,13.5,9.7,13.2,16.8H294c-0.2,5.1,2.7,9.6,9.1,9.6c4,0,6.7-1.9,7.6-5.7h4.7L315.4,156.2L315.4,156.2z M310.8,148
				c-0.2-4.6-3.7-8.3-8.4-8.3c-5,0-8,3.8-8.4,8.3H310.8z"/>
			<path class="st0" d="M321.1,125h4.8v40.4h-4.8V125z"/>
			<path class="st0" d="M361,125h5.9l15.8,40.4h-5.9l-4.4-12.2h-17.1l-4.5,12.2h-5.5L361,125z M356.9,148.7h13.7l-6.7-18.9h-0.1
				L356.9,148.7z"/>
			<path class="st0" d="M392.6,136.2h5.8v4.2h-5.8v18.2c0,2.2,0.6,2.6,3.6,2.6h2.2v4.2h-3.7c-5,0-7-1-7-6.4v-18.6h-5v-4.2h5v-8.8
				h4.8v8.8H392.6z"/>
			<path class="st0" d="M404,125h4.8v40.4H404V125z"/>
			<path class="st0" d="M442.2,165.3c-0.8,0.5-1.9,0.8-3.5,0.8c-2.5,0-4.1-1.4-4.1-4.5c-2.7,3.1-6.2,4.5-10.3,4.5
				c-5.3,0-9.7-2.4-9.7-8.2c0-6.6,4.9-8,9.9-9c5.3-1,9.9-0.7,9.9-4.3c0-4.2-3.5-4.9-6.5-4.9c-4.1,0-7.1,1.2-7.3,5.6h-4.8
				c0.3-7.3,5.9-9.8,12.4-9.8c5.3,0,11,1.2,11,8v15.1c0,2.3,0,3.3,1.5,3.3c0.4,0,0.8-0.1,1.5-0.3V165.3z M434.4,150.3
				c-1.9,1.4-5.5,1.4-8.7,2s-5.9,1.7-5.9,5.3c0,3.2,2.7,4.3,5.7,4.3c6.3,0,8.9-4,8.9-6.6V150.3z M429.3,124h6.2l-7.4,8.1h-3.6
				L429.3,124z"/>
			<path class="st0" d="M446.7,136.2h4.5v4.6h0.1c2-3.6,5.3-5.3,9.5-5.3c7.7,0,10.1,4.4,10.1,10.7v19.2h-4.8v-19.8
				c0-3.6-2.3-5.9-5.9-5.9c-5.8,0-8.7,3.9-8.7,9.2v16.5h-4.8L446.7,136.2L446.7,136.2z"/>
			<path class="st0" d="M484.9,136.2h5.8v4.2h-5.8v18.2c0,2.2,0.6,2.6,3.6,2.6h2.2v4.2H487c-5,0-7-1-7-6.4v-18.6h-5v-4.2h5v-8.8h4.8
				v8.8H484.9z"/>
			<path class="st0" d="M501.1,130.9h-4.8V125h4.8V130.9z M496.3,136.2h4.8v29.2h-4.8V136.2z"/>
			<path class="st0" d="M528.5,145.6c-0.7-3.7-3.3-5.8-7.2-5.8c-7,0-9.1,5.5-9.1,11.4c0,5.4,2.4,10.7,8.5,10.7c4.6,0,7.4-2.7,8-7.1
				h4.9c-1.1,7.1-5.5,11.4-12.9,11.4c-8.9,0-13.7-6.2-13.7-15s4.5-15.7,13.8-15.7c6.6,0,11.9,3.1,12.6,10.1L528.5,145.6L528.5,145.6
				z"/>
			<path class="st0" d="M551.6,135.5c9.3,0,14.2,6.7,14.2,15.4c0,8.6-4.9,15.3-14.2,15.3s-14.2-6.7-14.2-15.3
				C537.4,142.2,542.3,135.5,551.6,135.5z M551.6,161.9c5,0,9.1-4,9.1-11c0-7.1-4.1-11.1-9.1-11.1s-9.1,4-9.1,11.1
				C542.5,157.9,546.6,161.9,551.6,161.9z"/>
		</g>
	</g>
	<g>
		<g>
			<path class="st1" d="M13.1,72.6l3.6,1.4c0.1,0,0.1,0,0.1,0v-2.8c0-0.1,0-0.1-0.1-0.1l-3.6,1.3c0,0-0.1,0-0.1,0.1
				C13,72.5,13.1,72.5,13.1,72.6z"/>
			<path class="st1" d="M11.4,103.6h4.2c0.2,0,0.2,0,0.2-0.1c0.1-0.3,0.1-0.7,0.1-1.1c0-0.6,0-0.8-0.2-1c-0.3-0.4-0.9-0.9-2.1-0.9
				c-2,0-2.5,1.4-2.5,2.2c0,0.4,0,0.7,0.1,0.9C11.3,103.6,11.3,103.6,11.4,103.6z"/>
			<path class="st1" d="M3.7,0.2C1.6,0.2,0,1.9,0,3.9v157.6c0,2.1,1.7,3.7,3.7,3.7H7c0.1-0.8,1.1-1.3,2.4-1.3c1.8,0,5.5-0.2,7.6-0.4
				c12.1-1.3,17.4-9.7,22.1-20.7L99,6.3c1.3-3,2.3-5,3.1-6.3H3.7V0.2z M10.4,11.3c0-0.2,0-0.3,0.1-0.3s0.1,0.1,0.1,0.2
				c0,0.1,0,0.2,0,0.3s0.1,0.2,0.2,0.2s0.3-0.1,0.4-0.1c1.1-0.6,2.1-1.2,3.1-1.8c-0.6-0.4-2.5-1.7-2.9-2c-0.2-0.1-0.4-0.2-0.5-0.2
				s-0.2,0.1-0.2,0.2c0,0.2,0,0.4,0,0.5s0,0.2-0.1,0.2s-0.1-0.1-0.1-0.3c0-0.6,0-1.2,0-1.5s0-0.9,0-1.4c0-0.2,0-0.3,0.1-0.3
				s0.1,0.1,0.1,0.2s0,0.3,0.1,0.5c0.1,0.3,0.5,0.6,1.1,1l3.3,2.4c0.7-0.5,4.5-2.9,5-3.3c0.3-0.2,0.5-0.5,0.6-0.8
				c0.1-0.2,0.1-0.4,0.1-0.6c0-0.1,0.1-0.2,0.1-0.2c0.1,0,0.1,0.1,0.1,0.3v0.4c0,0.3,0,1.5,0,2.7C21.1,8,21,8.1,21,8.1
				c-0.1,0-0.1-0.1-0.2-0.2c0-0.1-0.1-0.2-0.3,0c-1.4,0.8-2.7,1.6-3.8,2.3l3.3,2.1c0.2,0.2,0.4,0.2,0.6,0.2c0.1,0,0.2-0.1,0.2-0.3
				c0-0.1,0-0.2,0-0.3s0.1-0.2,0.2-0.2s0.1,0.1,0.1,0.3v0.3c0,0.1,0,1,0,1.4c0,0.3,0,1,0,1.2v0.2c0,0.1,0,0.2-0.1,0.2
				s-0.2-0.1-0.2-0.2c0-0.1,0-0.3-0.1-0.5c-0.1-0.4-0.3-0.7-1-1.2l-3.9-2.9l-4,2.6c-0.6,0.4-0.9,0.7-1,1.2c-0.1,0.2-0.1,0.5-0.1,0.6
				S10.6,15,10.5,15s-0.1-0.1-0.1-0.3c0-0.3,0-1.5,0-2.2C10.5,12.7,10.4,11.8,10.4,11.3z M10.4,33.4c0-0.2,0-0.3,0.1-0.3
				s0.1,0.1,0.1,0.3s0,0.4,0,0.6c0.1,0.4,0.3,0.5,0.8,0.5c0.4,0,0.8,0,3,0h2.5c1.8,0,2.7,0,3-0.3c0.2-0.2,0.3-0.8,0.3-1.9
				c0-0.8,0-1.3-0.4-1.7c-0.2-0.2-0.6-0.3-0.8-0.4c-0.1,0-0.2-0.1-0.2-0.2s0.1-0.1,0.3-0.1s1.2,0.1,1.6,0.2c0.3,0.1,0.4,0.2,0.4,0.9
				c0,1,0,1.9,0,2.6s0,1.3,0,1.9c0,0.2,0,0.5,0,0.8s0,0.7,0,1c0,0.2,0,0.3-0.1,0.3s-0.1,0-0.1-0.2s0-0.4-0.1-0.5
				c-0.1-0.3-0.3-0.4-0.7-0.4c-0.6-0.1-1.7-0.1-3-0.1h-2.5c-2.1,0-2.5,0-3,0S11,36.6,10.8,37c0,0.1,0,0.3,0,0.5s0,0.2-0.1,0.2
				s-0.1-0.1-0.1-0.3c0-0.7,0-1.6,0-2C10.5,35.1,10.4,33.9,10.4,33.4z M10.5,47c0.1,0,0.3,0.1,0.9,0.1c0.1,0,0.8,0,0.9,0.1
				c0.1,0,0.2,0.1,0.2,0.2s-0.1,0.1-0.2,0.1s-0.3,0-0.5,0.1s-0.4,0.2-0.5,1c0,0.2-0.1,2-0.1,2.3c0,0.1,0,0.1,0.1,0.1h3.5
				c0.1,0,0.1,0,0.1-0.1c0-0.3,0-2.2,0-2.6c0-0.3-0.1-0.6-0.2-0.7c0-0.1-0.1-0.1-0.1-0.2s0.1-0.1,0.1-0.1c0.1,0,0.3,0,1,0.1
				c0.3,0,0.8,0.1,0.9,0.1s0.3,0,0.3,0.2c0,0.1,0,0.1-0.1,0.1s-0.3,0-0.5,0.1c-0.3,0.1-0.5,0.3-0.5,0.8c0,0.3-0.1,1.9-0.1,2.3
				c0,0.1,0.1,0.1,0.2,0.1H17c0.5,0,1.7,0,2.1,0c1,0,1.2-0.5,1.2-2c0-0.4,0-1-0.2-1.4s-0.5-0.5-1-0.6c-0.1,0-0.2-0.1-0.2-0.2
				s0.2-0.1,0.3-0.1c0.3,0,1.3,0.1,1.6,0.2c0.4,0.1,0.4,0.2,0.4,0.8c0,1.1,0,2,0,2.7s0,1.3,0,1.7c0,0.2,0,0.5,0,0.8c0,0.4,0,0.7,0,1
				c0,0.2,0,0.3-0.1,0.3S21,54.2,21,54.1c0-0.2,0-0.4-0.1-0.5c-0.1-0.3-0.3-0.4-0.7-0.4c-0.6-0.1-1.7-0.1-3-0.1h-2.5
				c-2.1,0-2.5,0-3,0s-0.6,0.2-0.8,0.6c0,0.1,0,0.4,0,0.6c0,0.1,0,0.2-0.1,0.2s-0.1-0.1-0.1-0.3c0-0.8,0-1.7,0-2.1c0-0.5,0-3.7,0-4
				s-0.1-0.5-0.1-0.6s-0.1-0.2-0.1-0.2C10.3,47.1,10.4,47,10.5,47z M21.1,115.6c0,0.4,0,0.7,0,1c0,0.2,0,0.3-0.1,0.3s-0.1,0-0.1-0.2
				s0-0.4-0.1-0.5c-0.1-0.3-0.3-0.4-0.7-0.4c-0.6-0.1-1.7-0.1-3-0.1h-2.5c-2.1,0-2.5,0-3,0s-0.6,0.2-0.8,0.6c0,0.1,0,0.4,0,0.6
				c0,0.1,0,0.2-0.1,0.2s-0.1-0.1-0.1-0.3c0-0.8,0-1.7,0-2.1c0-0.5,0-3.7,0-4s-0.1-0.5-0.1-0.6s-0.1-0.2-0.1-0.2
				c0-0.1,0.1-0.1,0.1-0.1c0.1,0,0.3,0.1,0.9,0.1c0.1,0,0.8,0.1,0.9,0.1s0.2,0,0.2,0.2c0,0.1-0.1,0.1-0.2,0.1s-0.3,0-0.5,0.1
				s-0.4,0.2-0.5,1c0,0.2-0.1,2-0.1,2.3c0,0.1,0,0.1,0.1,0.1h3.5c0.1,0,0.1,0,0.1-0.1c0-0.3,0-2.2,0-2.6c0-0.3-0.1-0.6-0.2-0.7
				c-0.1-0.1-0.2-0.2-0.2-0.2c0-0.1,0.1-0.1,0.1-0.1c0.1,0,0.3,0,1,0.1c0.3,0,0.8,0.1,0.9,0.1s0.3,0,0.3,0.1s0,0.1-0.1,0.1
				s-0.3,0-0.5,0c-0.3,0.1-0.5,0.3-0.5,0.8c0,0.3-0.1,1.9-0.1,2.3c0,0.1,0.1,0.1,0.2,0.1h1.1c0.5,0,1.7,0,2.1,0c1,0,1.2-0.5,1.2-2
				c0-0.4,0-1-0.2-1.4s-0.5-0.5-1-0.6c-0.1,0-0.2-0.1-0.2-0.2s0.2-0.1,0.3-0.1c0.3,0,1.3,0.1,1.6,0.2c0.4,0.1,0.4,0.2,0.4,0.8
				c0,1.1,0,2,0,2.7s0,1.3,0,1.7C21.1,114.9,21.1,115.3,21.1,115.6z M20,144.3c0.2,0.1,0.4,0.2,0.6,0.2c0.1,0,0.2-0.1,0.2-0.3
				c0-0.1,0-0.2,0-0.3s0.1-0.2,0.2-0.2s0.1,0.1,0.1,0.3v0.3c0,0.1,0,1,0,1.4c0,0.3,0,1,0,1.2v0.2c0,0.1,0,0.2-0.1,0.2
				s-0.2-0.1-0.2-0.2c0-0.1,0-0.3-0.1-0.5c-0.1-0.4-0.3-0.7-1-1.2l-3.9-2.9l-4,2.6c-0.6,0.4-0.9,0.7-1,1.2c-0.1,0.2-0.1,0.5-0.1,0.6
				s-0.1,0.1-0.2,0.1s-0.1-0.1-0.1-0.3c0-0.3,0-1.5,0-2.2c0-0.2,0-1.1,0-1.6c0-0.2,0-0.3,0.1-0.3s0.1,0.1,0.1,0.2c0,0.1,0,0.2,0,0.3
				s0.1,0.2,0.2,0.2s0.3-0.1,0.4-0.1c1.1-0.6,2.1-1.2,3.1-1.8c-0.6-0.4-2.5-1.7-2.9-2c-0.2-0.1-0.4-0.2-0.5-0.2s-0.2,0.1-0.2,0.2
				c0,0.1,0,0.3,0,0.5c0,0.1,0,0.2-0.1,0.2s-0.1-0.1-0.1-0.3c0-0.6,0-1.2,0-1.5s0-0.9,0-1.4c0-0.2,0-0.3,0.1-0.3s0.1,0.1,0.1,0.2
				s0,0.3,0.1,0.5c0.1,0.3,0.5,0.6,1.1,1l3.3,2.4c0.7-0.5,4.5-2.9,5-3.3c0.3-0.2,0.5-0.5,0.6-0.8c0.1-0.2,0.1-0.4,0.1-0.6
				c0-0.1,0.1-0.2,0.1-0.2c0.1,0,0.1,0.1,0.1,0.3v0.4c0,0.3,0,1.5,0,2.7c0,0.4-0.1,0.5-0.1,0.5c-0.1,0-0.1-0.1-0.2-0.2
				c0-0.1-0.1-0.2-0.3-0.1c-1.4,0.8-2.7,1.6-3.8,2.3L20,144.3z M10.4,102.3c0-0.9,0.1-2,0.6-2.8c0.3-0.4,1-1,1.9-1c1,0,2,0.6,3.1,2
				c1.6-1.3,2.9-2.3,3.8-3.2c0.8-0.8,0.9-1.3,0.9-1.6c0-0.1,0-0.2,0-0.3s0.1-0.2,0.1-0.2c0.1,0,0.1,0.1,0.1,0.3v1.4
				c0,0.8-0.1,1.2-0.3,1.6c-0.3,0.6-1,1.2-2.1,2c-0.8,0.6-1.7,1.2-1.9,1.4c-0.1,0.1-0.1,0.2-0.1,0.3v1.3c0,0.1,0,0.1,0.1,0.1h0.2
				c1.3,0,2.4,0,3-0.1c0.4,0,0.7-0.1,0.7-0.6c0-0.2,0.1-0.5,0.1-0.7c0-0.1,0.1-0.2,0.1-0.2c0.1,0,0.1,0.1,0.1,0.3c0,0.8,0,2.1,0,2.3
				c0,0.3,0,1.2,0,1.8c0,0.2,0,0.3-0.1,0.3s-0.1-0.1-0.1-0.2c0-0.2,0-0.4-0.1-0.5c-0.1-0.3-0.3-0.4-0.7-0.4c-0.6-0.1-1.7-0.1-3-0.1
				h-2.5c-2.1,0-2.5,0-3,0s-0.6,0.2-0.8,0.6c0,0.1,0,0.4,0,0.6c0,0.1,0,0.2-0.1,0.2s-0.1-0.1-0.1-0.3c0-0.8,0-1.7,0-2
				C10.5,104.1,10.4,102.8,10.4,102.3z M10.4,90.2c0-0.2,0-0.3,0.1-0.3s0.2,0.1,0.2,0.2c0,0.2,0,0.3,0,0.4c0.1,0.4,0.3,0.5,0.8,0.5
				c0.4,0,0.8,0,3,0H17c1.4,0,2.5,0,3.1-0.1c0.4,0,0.6-0.1,0.7-0.6c0-0.2,0.1-0.5,0.1-0.7s0.1-0.2,0.1-0.2c0.1,0,0.1,0.1,0.1,0.3
				c0,1,0,2,0,2.4c0,0.3,0,1.3,0,1.9c0,0.2,0,0.3-0.1,0.3s-0.1,0-0.1-0.2s0-0.4-0.1-0.5c-0.1-0.3-0.3-0.4-0.7-0.4
				c-0.6-0.1-1.7-0.1-3.1-0.1h-2.5c-2.1,0-2.5,0-3,0s-0.6,0.2-0.7,0.5c0,0.2-0.1,0.3-0.1,0.5c0,0.1,0,0.2-0.2,0.2
				c-0.1,0-0.1-0.1-0.1-0.3c0-0.5,0-1.5,0-2C10.5,91.7,10.4,90.7,10.4,90.2z M10.4,65.5c0.1-0.4,0.1-1,0.1-1.5v-5.9
				c0-0.5,0-0.8-0.1-1c0-0.2-0.1-0.3-0.1-0.4s0.1-0.1,0.3-0.1c0.3,0,1.3,0,1.7,0c0.1,0,0.2,0,0.2,0.1s-0.1,0.1-0.3,0.2h-0.1
				c-0.4,0-0.8,0.4-0.8,1.7v1.8H17c1.3,0,2.4,0,3-0.1c0.4-0.1,0.7-0.1,0.7-0.6c0-0.2,0.1-0.5,0.1-0.7s0.1-0.2,0.1-0.2
				c0.1,0,0.1,0.1,0.1,0.3c0,1,0,1.9,0,2.4c0,0.3,0,1.3,0,1.9c0,0.2,0,0.3-0.1,0.3s-0.1,0-0.1-0.2s0-0.4-0.1-0.5
				c-0.1-0.3-0.3-0.4-0.7-0.4c-0.6-0.1-1.7-0.1-3-0.1h-5.7l0.1,2.2c0,0.8,0.1,1.2,0.4,1.4c0.2,0.1,0.4,0.2,0.5,0.2s0.2,0.1,0.2,0.2
				s-0.1,0.1-0.2,0.1c-0.2,0-1.6-0.3-1.7-0.3c-0.2,0-0.3-0.1-0.3-0.2C10.2,66,10.4,65.9,10.4,65.5z M10.6,71.7
				c0.8-0.3,6.6-2.8,8.7-3.7c1.3-0.6,1.5-1,1.5-1.2s0.1-0.4,0.1-0.5s0-0.2,0.1-0.2s0.1,0.1,0.1,0.6s0,1.6,0,2.8c0,0.3,0,0.4-0.1,0.4
				s-0.1,0-0.1-0.2c0-0.1-0.1-0.2-0.3-0.1l-2.8,1.1c-0.1,0-0.1,0.1-0.1,0.1v3.4c0,0.1,0,0.1,0.1,0.1l1.9,0.8
				c0.3,0.2,0.7,0.2,0.9,0.2s0.4-0.1,0.4-0.6v-0.2c0-0.2,0.1-0.2,0.1-0.2c0.1,0,0.1,0.1,0.1,0.2c0,0.5,0,1.2,0,1.6
				c0,0.2,0,0.9,0,1.7c0,0.2,0,0.3-0.1,0.3s-0.1,0-0.1-0.2c0-0.1,0-0.3,0-0.4c-0.1-0.7-0.5-0.9-1.2-1.2l-8.9-3.8
				c-0.4-0.2-0.6-0.3-0.6-0.4C10.1,71.9,10.2,71.8,10.6,71.7z M10.2,87c0-0.1,0.1-0.3,0.2-0.6c0.1-0.4,0.1-1,0.1-1.5V79
				c0-0.5,0-0.8-0.1-1c0-0.2-0.1-0.3-0.1-0.4s0.1-0.1,0.3-0.1c0.3,0,1.3,0,1.7,0c0.1,0,0.2,0,0.2,0.1s-0.1,0.1-0.3,0.2h-0.1
				c-0.4,0-0.8,0.4-0.8,1.7v1.8H17c1.3,0,2.4,0,3-0.1c0.4,0,0.7-0.1,0.7-0.6c0-0.2,0.1-0.5,0.1-0.7s0.1-0.2,0.1-0.2
				c0.1,0,0.1,0.1,0.1,0.3c0,1,0,1.9,0,2.4c0,0.3,0,1.3,0,1.9c0,0.2,0,0.3-0.1,0.3s-0.1-0.1-0.1-0.2c0-0.2,0-0.4-0.1-0.5
				c-0.1-0.3-0.3-0.4-0.7-0.4c-0.6-0.1-1.7-0.1-3-0.1h-5.7l0.1,2.2c0,0.8,0.1,1.2,0.4,1.4c0.2,0.2,0.4,0.2,0.5,0.2s0.2,0.1,0.2,0.2
				s-0.1,0.1-0.2,0.1c-0.2,0-1.6-0.3-1.7-0.3C10.3,87.2,10.2,87.1,10.2,87z M21.1,155.5c0,0.3,0,0.7,0,1c0,0.2,0,0.3-0.1,0.3
				s-0.1-0.1-0.1-0.2c0-0.2,0-0.4-0.1-0.5c-0.1-0.3-0.3-0.4-0.7-0.4c-0.6-0.1-1.7-0.1-3-0.1h-2.5c-2.1,0-2.5,0-3,0s-0.6,0.2-0.8,0.6
				c0,0.1,0,0.4,0,0.6c0,0.1,0,0.2-0.1,0.2s-0.1-0.1-0.1-0.3c0-0.8,0-1.7,0-2.1c0-0.5,0-3.7,0-4s-0.1-0.5-0.1-0.6s-0.1-0.2-0.1-0.2
				c0-0.1,0.1-0.1,0.1-0.1c0.1,0,0.3,0.1,0.9,0.1c0.1,0,0.8,0,0.9,0.1c0.1,0,0.2,0.1,0.2,0.2c0,0.1-0.1,0.1-0.2,0.1s-0.3,0-0.5,0.1
				s-0.4,0.2-0.5,1c0,0.3-0.1,2-0.1,2.3c0,0.1,0,0.1,0.1,0.1h3.5c0.1,0,0.1,0,0.1-0.1c0-0.3,0-2.2,0-2.6c0-0.3-0.1-0.6-0.2-0.7
				c-0.1-0.1-0.2-0.2-0.2-0.2c0-0.1,0.1-0.1,0.1-0.1c0.1,0,0.3,0,1,0.1c0.3,0,0.8,0.1,0.9,0.1s0.3,0,0.3,0.1s0,0.1-0.1,0.1
				s-0.3,0-0.5,0c-0.3,0.1-0.5,0.3-0.5,0.8c0,0.3-0.1,1.9-0.1,2.3c0,0.1,0.1,0.1,0.2,0.1h1.1c0.5,0,1.7,0,2.1,0c1,0,1.2-0.5,1.2-2
				c0-0.4,0-1-0.2-1.4s-0.5-0.5-1-0.6c-0.1,0-0.2-0.1-0.2-0.2c0-0.1,0.2-0.1,0.3-0.1c0.3,0,1.3,0.1,1.6,0.2c0.4,0.1,0.4,0.2,0.4,0.8
				c0,1.1,0,2,0,2.7s0,1.3,0,1.7C21.1,154.8,21.1,155.1,21.1,155.5z M20.5,124.9l-8.6,3.7c-0.8,0.3-0.9,0.5-1,1.1c0,0.2,0,0.4,0,0.6
				c0,0.1-0.1,0.2-0.1,0.2c-0.1,0-0.1-0.2-0.1-0.4c0-0.8,0-1.6,0-2.1c0-0.4,0-1.1,0-1.9c0-0.2,0-0.3,0.1-0.3s0.1,0.1,0.1,0.2
				c0,0.2,0,0.4,0.1,0.6c0.1,0.1,0.1,0.1,0.3,0.1s0.6-0.1,1.1-0.3l6.3-2.5l0,0c-1.5-0.6-6-2.5-6.9-2.9c-0.2-0.1-0.4-0.1-0.5-0.1
				s-0.2,0.1-0.2,0.2c0,0.2-0.1,0.4-0.1,0.6c0,0.1,0,0.2-0.1,0.2s-0.1-0.1-0.1-0.4c0-0.7,0-1.4,0-1.6s0-0.9,0-1.4
				c0-0.2,0-0.3,0.1-0.3s0.1,0.1,0.1,0.2s0,0.5,0.2,0.7c0.1,0.2,0.3,0.4,1.2,0.8c1.3,0.6,2.1,1,3.8,1.8c2.1,0.9,3.6,1.6,4.3,1.9
				c0.8,0.4,1,0.5,1,0.7C21.3,124.5,21.1,124.6,20.5,124.9z M20.3,25.9c-0.6,0.7-1.7,1.3-3.7,1.3h-2.1c-2.1,0-2.5,0-3,0
				s-0.6,0.2-0.8,0.6c0,0.1,0,0.4,0,0.6s0,0.2-0.1,0.2s-0.1-0.1-0.1-0.3c0-0.8,0-1.8,0-2.2s0-1.3,0-1.9c0-0.2,0-0.3,0.1-0.3
				s0.1,0.1,0.1,0.2c0,0.2,0,0.2,0,0.4c0.1,0.4,0.3,0.5,0.8,0.5c0.4,0,0.8,0,3,0h2c2.1,0,2.9-0.4,3.4-1.1c0.5-0.6,0.6-1.3,0.6-1.8
				c0-0.6-0.2-1.4-0.7-2c-0.8-0.8-2-0.8-3.4-0.8h-1.8c-2.1,0-2.5,0-3,0s-0.6,0.1-0.8,0.6c0,0.1,0,0.4,0,0.5c0,0.2,0,0.2-0.1,0.2
				s-0.1-0.1-0.1-0.3c0-0.7,0-1.7,0-1.7c0-0.2,0-1.1,0-1.7c0-0.2,0-0.3,0.1-0.3s0.1,0.1,0.1,0.2c0,0.2,0,0.2,0,0.4
				c0.1,0.4,0.3,0.5,0.8,0.5c0.4,0,0.8,0,3,0h1.5c1.6,0,3.2,0.2,4.2,1.4c0.9,1,1,2.1,1,3.1C21.3,23.3,21.3,24.8,20.3,25.9z"/>
		</g>
		<g>
			<path class="st1" d="M197.9,55.6c0.7,0,1.9-0.3,2.7-1.4c0.2-0.3,0.4-0.7,0.4-1.3v-0.6c0-0.1,0-0.1-0.1-0.1h-3.4
				c-1,0-1.3,0-1.5,0.5c-0.2,0.4-0.2,0.7-0.2,1.1C195.8,54.6,196.2,55.6,197.9,55.6z"/>
			<path class="st1" d="M195.7,66c0,1.1,0.5,3.4,4.8,3.4c3.3,0,5.3-1.9,5.3-4.3c0-1.7-0.9-3.6-4.6-3.6
				C198.1,61.5,195.7,63.2,195.7,66z"/>
			<path class="st1" d="M203.4,54.8c1,0,2.2-0.6,2.2-1.9c0-0.2,0-0.5,0-0.6s-0.1-0.1-0.2-0.1h-3.6c-0.1,0-0.1,0-0.2,0.1
				c0,0.1-0.1,0.4-0.1,0.7c0,0.5,0.1,0.9,0.3,1.2C202.2,54.5,202.7,54.8,203.4,54.8z"/>
			<path class="st1" d="M205.3,119.1h-4.4c-0.2,0-0.2,0-0.3,0.1c-0.1,0.3-0.1,0.8-0.1,1.1c0,0.6,0.1,0.8,0.2,1.1c0.3,0.5,1,1,2.2,1
				c2.1,0,2.6-1.4,2.6-2.3C205.5,119.7,205.5,119.4,205.3,119.1C205.5,119.2,205.4,119.1,205.3,119.1z"/>
			<path class="st1" d="M202.9,79.8c2.1,0,2.6-1.4,2.6-2.3c0-0.4,0-0.7-0.1-0.9c0-0.1-0.1-0.1-0.2-0.1h-4.4c-0.2,0-0.2,0-0.3,0.1
				c-0.1,0.3-0.1,0.8-0.1,1.1c0,0.6,0.1,0.8,0.2,1.1C201.1,79.3,201.7,79.8,202.9,79.8z"/>
			<path class="st1" d="M203.5,42l-3.8-1.4c-0.1,0-0.1,0-0.1,0.1v2.9c0,0.1,0,0.1,0.1,0.1l3.8-1.4c0.1,0,0.1,0,0.1-0.1
				C203.7,42,203.6,42,203.5,42z"/>
			<path class="st1" d="M211.8,0.2h-104h-0.1c0.7,1.2,1.7,3,2.9,5.7c4,8.3,45.4,99.1,61.4,132.5c9.5,19.6,17.1,23.1,22.7,24.4
				c4,1.1,7.9,1.3,10.5,1.3c1.5,0,2.6,0.2,2.6,1.3h4c2.1,0,3.7-1.7,3.7-3.7V4C215.6,1.9,213.9,0.2,211.8,0.2z M195.1,5.9
				c0-0.4,0-0.7,0-1c0-0.2,0.1-0.3,0.2-0.3c0.1,0,0.2,0.1,0.2,0.2c0,0.2,0,0.4,0.1,0.5c0.1,0.3,0.4,0.4,0.8,0.4
				c0.6,0.1,1.8,0.1,3.2,0.1h2.6c2.3,0,2.7,0,3.2,0s0.7-0.2,0.8-0.6c0-0.1,0.1-0.4,0.1-0.6s0-0.3,0.2-0.3c0.1,0,0.1,0.1,0.1,0.3
				c0,0.8,0,1.7,0,2.2s0,3.8,0,4.1s0.1,0.5,0.1,0.6s0.1,0.2,0.1,0.2c0,0.1-0.1,0.1-0.1,0.1c-0.1,0-0.3-0.1-1-0.1
				c-0.2,0-0.8-0.1-1-0.1c-0.1,0-0.2-0.1-0.2-0.2c0-0.1,0.1-0.1,0.2-0.1c0.1,0,0.4,0,0.5-0.1c0.3-0.1,0.5-0.2,0.5-1
				c0-0.3,0.1-2,0.1-2.3c0-0.1,0-0.1-0.1-0.1H202c-0.1,0-0.2,0-0.2,0.1c0,0.3,0,2.3,0,2.6c0,0.4,0.1,0.6,0.2,0.7
				c0.1,0.1,0.2,0.2,0.2,0.2c0,0.1-0.1,0.1-0.2,0.1c-0.1,0-0.3,0-1.1-0.1c-0.3,0-0.9-0.1-1-0.1s-0.3,0-0.3-0.2
				c0-0.1,0.1-0.1,0.1-0.1c0.2,0,0.3,0,0.5-0.1c0.3-0.1,0.5-0.3,0.6-0.8c0-0.3,0.1-2,0.1-2.3c0-0.1-0.1-0.1-0.2-0.1h-1.2
				c-0.5,0-1.8,0-2.2,0c-1,0-1.2,0.5-1.2,2c0,0.4,0,1,0.2,1.4s0.5,0.5,1.1,0.6c0.2,0,0.2,0.1,0.2,0.2c0,0.1-0.2,0.1-0.4,0.1
				c-0.3,0-1.3-0.1-1.6-0.2c-0.4-0.1-0.4-0.2-0.4-0.8c0-1.1,0-2,0.1-2.8c0-0.7,0-1.3,0-1.7C195.1,6.6,195.1,6.3,195.1,5.9z
				 M206.4,17.5c0,0.2,0,0.3-0.1,0.3s-0.2-0.1-0.2-0.2s0-0.2-0.1-0.4c0-0.1-0.1-0.2-0.2-0.2c-0.1,0-0.3,0.1-0.4,0.2
				c-1.2,0.7-2.2,1.3-3.2,1.9c0.7,0.4,2.7,1.8,3.1,2c0.2,0.1,0.4,0.2,0.5,0.2s0.2-0.1,0.2-0.3c0.1-0.1,0.1-0.4,0.1-0.5
				s0-0.2,0.2-0.2c0.1,0,0.1,0.1,0.1,0.3c0,0.6,0,1.3,0,1.6s0,0.9,0,1.5c0,0.2,0,0.3-0.1,0.3s-0.2-0.1-0.2-0.2c0-0.2,0-0.3-0.1-0.5
				c-0.1-0.3-0.5-0.6-1.1-1.1l-3.5-2.5c-0.7,0.5-4.8,3-5.3,3.3c-0.3,0.3-0.5,0.5-0.6,0.8c-0.1,0.2-0.1,0.4-0.1,0.6
				c0,0.1-0.1,0.2-0.2,0.2c-0.1,0-0.2-0.1-0.2-0.3v-0.4c0-0.4,0-1.5,0-2.8c0-0.4,0.1-0.5,0.2-0.5c0.1,0,0.2,0.1,0.2,0.2
				s0.1,0.2,0.3,0c1.5-0.9,2.9-1.7,4-2.4l-3.5-2.2c-0.2-0.2-0.5-0.2-0.6-0.2s-0.2,0.2-0.2,0.3s0,0.2,0,0.3s-0.1,0.2-0.2,0.2
				c-0.1,0-0.1-0.1-0.1-0.3v-0.3c0-0.1,0.1-1.1,0.1-1.4c0-0.3-0.1-1-0.1-1.3v-0.3c0-0.2,0.1-0.2,0.1-0.2s0.2,0.1,0.2,0.2
				c0,0.1,0,0.3,0.1,0.5c0.1,0.4,0.4,0.7,1.1,1.2l4.1,2.9l4.2-2.6c0.6-0.4,0.9-0.7,1.1-1.2c0.1-0.2,0.1-0.5,0.1-0.6s0.1-0.2,0.2-0.2
				c0.1,0,0.1,0.1,0.1,0.3c0,0.4,0,1.6,0,2.3C206.3,16,206.4,16.9,206.4,17.5z M195.1,50.3c0-0.4,0-0.7,0-1c0-0.2,0.1-0.3,0.2-0.3
				c0.1,0,0.2,0.1,0.2,0.2c0,0.2,0,0.4,0.1,0.5c0.1,0.3,0.4,0.4,0.8,0.4c0.6,0.1,1.8,0.1,3.2,0.1h2.6c2.3,0,2.7,0,3.2,0
				s0.7-0.2,0.8-0.6c0-0.1,0.1-0.4,0.1-0.6s0-0.3,0.2-0.3c0.1,0,0.1,0.1,0.1,0.3c0,0.8,0,1.7,0,2c0,0.7,0,1.7,0,2.2
				c0,2.7-1.4,3.2-2.2,3.2c-1.2,0-2.1-0.8-2.6-1.7c-0.4,1.2-1.5,2.8-3.2,2.8c-1.6,0-3.2-1.2-3.2-4c0-0.2,0-0.7,0.1-1.2
				c0-0.5,0-1,0-1.3C195.1,51,195.1,50.6,195.1,50.3z M195.1,86.2c0-0.4,0-0.7,0-1c0-0.1,0-0.1,0-0.2c0,0,0-0.1,0-0.2v-1.4
				c0-0.8,0.1-1.2,0.3-1.6c0.3-0.6,1-1.2,2.2-2c0.8-0.6,1.8-1.2,2-1.4c0.1-0.1,0.1-0.2,0.1-0.3v-1.3c0-0.1,0-0.1-0.1-0.1h-0.2
				c-1.4,0-2.5,0-3.2,0.1c-0.4,0.1-0.7,0.1-0.8,0.6c0,0.2-0.1,0.5-0.1,0.7c0,0.1-0.1,0.2-0.2,0.2c-0.1,0-0.2-0.1-0.2-0.3
				c0-0.9,0.1-2.1,0.1-2.3c0-0.3-0.1-1.2-0.1-1.8c0-0.2,0.1-0.3,0.2-0.3c0.1,0,0.2,0.1,0.2,0.2c0,0.2,0,0.4,0.1,0.5
				c0.1,0.3,0.4,0.4,0.8,0.4c0.6,0.1,1.8,0.1,3.2,0.1h2.6c2.3,0,2.7,0,3.2,0s0.7-0.2,0.8-0.6c0-0.1,0.1-0.4,0.1-0.6s0-0.3,0.2-0.3
				c0.1,0,0.1,0.1,0.1,0.3c0,0.8,0,1.7,0,2c0,0.5,0,1.9,0,2.3c0,0.9-0.1,2-0.6,2.8c-0.3,0.4-1,1.1-2.1,1.1s-2.1-0.6-3.3-2.1
				c-1.7,1.3-3,2.4-4,3.3c-0.9,0.8-0.9,1.4-1,1.6c0,0.2,0,0.2,0,0.4v0.1v0.1c0,0.2,0,0.4,0.1,0.5c0.1,0.3,0.4,0.4,0.8,0.4
				c0.6,0.1,1.8,0.1,3.2,0.1h2.6c2.3,0,2.7,0,3.2,0s0.7-0.2,0.8-0.6c0-0.1,0.1-0.4,0.1-0.6s0-0.3,0.2-0.3c0.1,0,0.1,0.1,0.1,0.3
				c0,0.8,0,1.7,0,2.2s0,3.8,0,4.1s0.1,0.5,0.1,0.6s0.1,0.2,0.1,0.2c0,0.1-0.1,0.1-0.1,0.1c-0.1,0-0.3-0.1-1-0.1
				c-0.2,0-0.8-0.1-1-0.1c-0.1,0-0.2,0-0.2-0.2c0-0.1,0.1-0.1,0.2-0.1c0.1,0,0.4,0,0.5-0.1c0.3-0.1,0.5-0.2,0.5-1
				c0-0.3,0.1-2,0.1-2.3c0-0.1,0-0.1-0.1-0.1h-3.7c-0.1,0-0.2,0-0.2,0.1c0,0.3,0,2.3,0,2.6c0,0.4,0.1,0.6,0.2,0.7
				c0.1,0.1,0.2,0.2,0.2,0.2c0,0.1-0.1,0.1-0.2,0.1c-0.1,0-0.3,0-1.1-0.1c-0.3,0-0.9-0.1-1-0.1s-0.3,0-0.3-0.2
				c0-0.1,0.1-0.1,0.1-0.1c0.2,0,0.3,0,0.5,0c0.3-0.1,0.5-0.3,0.6-0.8c0-0.3,0.1-2,0.1-2.3c0-0.1-0.1-0.1-0.2-0.1h-1.2
				c-0.5,0-1.8,0-2.2,0c-1,0-1.2,0.5-1.2,2c0,0.4,0,1,0.2,1.4s0.5,0.5,1.1,0.6c0.2,0,0.2,0.1,0.2,0.2s-0.2,0.1-0.4,0.1
				c-0.3,0-1.3-0.1-1.6-0.2c-0.4-0.1-0.4-0.2-0.4-0.8c0-1.1,0-2,0.1-2.8c0-0.7,0-1.3,0-1.7C195.1,86.9,195.1,86.5,195.1,86.2z
				 M195.8,102.2l9.1-3.8c0.8-0.3,1-0.6,1.1-1.1c0.1-0.2,0.1-0.5,0.1-0.6s0.1-0.2,0.2-0.2c0.1,0,0.1,0.2,0.1,0.4c0,0.8,0,1.6,0,2.2
				c0,0.4,0,1.2,0,1.9c0,0.2,0,0.4-0.1,0.4s-0.2-0.1-0.2-0.2c0-0.2,0-0.5-0.1-0.6s-0.2-0.2-0.3-0.2c-0.2,0-0.6,0.1-1.1,0.3l-6.7,2.5
				v0.1c1.5,0.6,6.3,2.6,7.3,2.9c0.2,0.1,0.4,0.1,0.5,0.1c0.2,0,0.2-0.1,0.3-0.2c0-0.2,0.1-0.4,0.1-0.6c0-0.1,0-0.3,0.2-0.3
				c0.1,0,0.1,0.1,0.1,0.4c0,0.7,0,1.4,0,1.6c0,0.3,0,1,0,1.4c0,0.2,0,0.3-0.1,0.3s-0.2-0.1-0.2-0.2c0-0.2,0-0.5-0.2-0.7
				c-0.1-0.2-0.4-0.4-1.3-0.8c-1.4-0.6-2.2-1-4-1.8c-2.2-0.9-3.8-1.6-4.6-2c-0.9-0.4-1.1-0.5-1.1-0.7
				C194.9,102.6,195.1,102.5,195.8,102.2z M206.4,113.5c0,0.2,0,0.3-0.1,0.3s-0.2-0.1-0.2-0.2c0-0.2,0-0.3-0.1-0.4
				c-0.1-0.4-0.3-0.5-0.8-0.6c-0.5,0-0.9,0-3.2,0h-2.6c-1.4,0-2.6,0-3.3,0.1c-0.4,0-0.6,0.2-0.7,0.6c0,0.2-0.1,0.5-0.1,0.8
				c0,0.2-0.1,0.2-0.2,0.2c-0.1,0-0.2-0.1-0.2-0.3c0-1,0.1-2,0.1-2.4c0-0.3-0.1-1.4-0.1-2c0-0.2,0.1-0.3,0.2-0.3
				c0.1,0,0.2,0.1,0.2,0.2c0,0.2,0,0.4,0.1,0.5c0.1,0.3,0.3,0.4,0.7,0.4c0.6,0.1,1.8,0.1,3.2,0.1h2.6c2.3,0,2.7,0,3.2,0
				s0.7-0.2,0.8-0.5c0-0.2,0.1-0.4,0.1-0.5c0-0.2,0-0.2,0.2-0.2c0.1,0,0.1,0.1,0.1,0.4c0,0.6,0,1.6,0,2
				C206.3,111.9,206.4,112.9,206.4,113.5z M206.4,120.4c0,0.9-0.1,2-0.6,2.8c-0.3,0.4-1,1-2.1,1s-2.1-0.6-3.3-2.1
				c-1.7,1.3-3,2.4-4,3.3c-0.9,0.8-0.9,1.4-1,1.6c0,0.2,0,0.2,0,0.4c0,0.1-0.1,0.2-0.2,0.2c-0.1,0-0.2-0.1-0.2-0.3v-1.4
				c0-0.8,0.1-1.2,0.3-1.6c0.3-0.6,1-1.2,2.2-2c0.8-0.6,1.8-1.2,2-1.4c0.1-0.1,0.1-0.2,0.1-0.3v-1.3c0-0.1,0-0.1-0.1-0.1h-0.2
				c-1.4,0-2.5,0-3.2,0.1c-0.4,0-0.7,0.1-0.8,0.6c0,0.2-0.1,0.5-0.1,0.7c0,0.1-0.1,0.2-0.2,0.2c-0.1,0-0.2-0.1-0.2-0.3
				c0-0.9,0.1-2.1,0.1-2.3c0-0.3-0.1-1.2-0.1-1.8c0-0.2,0.1-0.3,0.2-0.3c0.1,0,0.2,0,0.2,0.2s0,0.4,0.1,0.5c0.1,0.3,0.4,0.4,0.8,0.4
				c0.6,0.1,1.8,0.1,3.2,0.1h2.6c2.3,0,2.7,0,3.2,0s0.7-0.2,0.8-0.6c0-0.1,0.1-0.4,0.1-0.6s0-0.3,0.2-0.3c0.1,0,0.1,0.1,0.1,0.3
				c0,0.8,0,1.7,0,2C206.3,118.6,206.4,120,206.4,120.4z M195.9,139.4c0.7-0.8,1.8-1.4,3.9-1.4h2.2c2.3,0,2.7,0,3.2,0
				s0.7-0.2,0.8-0.6c0-0.1,0.1-0.4,0.1-0.6c0-0.2,0-0.3,0.2-0.3c0.1,0,0.1,0.1,0.1,0.3c0,0.8,0,1.8,0,2.2s0,1.4,0,1.9
				c0,0.2,0,0.3-0.1,0.3s-0.2-0.1-0.2-0.2c0-0.2,0-0.3-0.1-0.4c-0.1-0.4-0.3-0.5-0.8-0.5s-0.9,0-3.2,0h-2.1c-2.2,0-3,0.4-3.6,1.1
				c-0.5,0.7-0.6,1.4-0.6,1.9c0,0.6,0.2,1.4,0.8,2c0.8,0.8,2.1,0.9,3.6,0.9h1.9c2.3,0,2.7,0,3.2,0s0.7-0.2,0.8-0.6
				c0-0.1,0.1-0.4,0.1-0.5s0-0.3,0.2-0.3c0.1,0,0.1,0.1,0.1,0.3c0,0.8,0,1.8,0,1.8c0,0.2,0,1.2,0,1.7c0,0.2,0,0.3-0.1,0.3
				s-0.2-0.1-0.2-0.3s0-0.3-0.1-0.4c-0.1-0.4-0.3-0.5-0.8-0.5s-0.9,0-3.2,0h-1.6c-1.7,0-3.4-0.2-4.5-1.4c-0.9-1.1-1.1-2.2-1.1-3.2
				C194.9,142,194.9,140.5,195.9,139.4z M206.3,156.6c0,0.1-0.1,0.2-0.2,0.2c-0.2,0-0.6,0-1.8,0c-0.3,0-0.5-0.1-0.5-0.2
				c0-0.1,0.1-0.2,0.3-0.2c0.1,0,0.6-0.1,1-0.4c0.3-0.2,0.7-0.7,0.7-1.7c0-1.1-0.6-2-1.6-2c-0.7,0-1.2,0.2-2,1.6l-0.3,0.6
				c-1.1,2-2.3,2.6-3.6,2.6c-1.1,0-2-0.4-2.8-1.5c-0.5-0.7-0.6-1.7-0.6-2.5c0-0.9,0.1-1.8,0.4-2.4c0.1-0.2,0.2-0.3,0.5-0.3
				c0.8,0,1.7,0.1,2,0.1c0.2,0,0.4,0.1,0.4,0.2c0,0.1-0.1,0.2-0.2,0.2c-0.2,0-0.5,0-0.8,0.1c-1.1,0.3-1.5,1.4-1.5,2.4
				c0,1.3,0.8,2.1,1.9,2.1c0.6,0,1.3-0.2,2.1-1.5l0.5-0.9c1.1-1.8,2.1-2.3,3.4-2.3c1.8,0,3,1.7,3,3.8
				C206.6,155.4,206.4,156.2,206.3,156.6z M206.4,127c-0.1,0.4-0.1,1-0.1,1.5v6.1c0,0.5,0,0.8,0.1,1c0,0.2,0.1,0.4,0.1,0.4
				c0,0.1-0.1,0.1-0.3,0.1c-0.3,0-1.4,0-1.8,0c-0.2,0-0.2-0.1-0.2-0.1c0-0.1,0.1-0.1,0.3-0.2h0.2c0.4,0,0.8-0.4,0.9-1.8v-1.9h-6
				c-1.4,0-2.5,0-3.2,0.1c-0.4,0-0.7,0.1-0.8,0.6c0,0.2-0.1,0.5-0.1,0.8c0,0.2-0.1,0.2-0.2,0.2c-0.1,0-0.2-0.1-0.2-0.3
				c0-1,0.1-2,0.1-2.4c0-0.3-0.1-1.4-0.1-2c0-0.2,0.1-0.3,0.2-0.3c0.1,0,0.2,0.1,0.2,0.2c0,0.2,0,0.4,0.1,0.5
				c0.1,0.3,0.4,0.4,0.8,0.4c0.6,0.1,1.8,0.1,3.2,0.1h6l-0.1-2.2c0-0.9-0.1-1.2-0.5-1.4c-0.2-0.2-0.4-0.2-0.5-0.3
				c-0.1,0-0.2-0.1-0.2-0.2s0.1-0.1,0.2-0.1c0.2,0,1.7,0.3,1.8,0.3c0.2,0,0.3,0.1,0.3,0.2C206.6,126.5,206.4,126.6,206.4,127z
				 M201,71.7c-3.4,0-6.1-2.4-6.1-6.3c0-4.4,3.2-6.1,5.8-6.1c2.5,0,5.8,1.7,5.8,6.3C206.6,69.3,204.4,71.7,201,71.7z M206.2,42.9
				c-0.8,0.4-6.9,2.9-9.2,3.8c-1.3,0.6-1.5,1-1.6,1.3c0,0.2-0.1,0.4-0.1,0.6c0,0.1-0.1,0.2-0.2,0.2c-0.1,0-0.2-0.1-0.2-0.6
				s0-1.6,0-2.9c0-0.3,0-0.4,0.1-0.4s0.1,0,0.2,0.2c0,0.1,0.2,0.2,0.3,0.1l3-1.2c0.1,0,0.1-0.1,0.1-0.2v-3.5c0-0.1,0-0.1-0.1-0.1
				l-2-0.8c-0.4-0.1-0.7-0.2-0.9-0.2c-0.3,0-0.4,0.1-0.4,0.6V40c0,0.2-0.1,0.2-0.2,0.2c-0.1,0-0.2-0.1-0.2-0.2
				c0-0.5,0.1-1.2,0.1-1.7c0-0.1-0.1-0.9-0.1-1.7c0-0.1,0-0.3,0-0.5c0-1.1,0-1.9,0.1-2.7c0-0.7,0-1.4,0-2c0-0.2,0-0.5,0-0.8
				c0-0.4,0-0.7,0-1c0-0.2,0.1-0.3,0.2-0.3c0.1,0,0.2,0.1,0.2,0.2c0,0.2,0,0.4,0.1,0.5c0.1,0.3,0.4,0.4,0.8,0.4
				c0.6,0.1,1.8,0.1,3.2,0.1h2.6c2.3,0,2.7,0,3.2,0s0.7-0.2,0.8-0.6c0-0.1,0.1-0.3,0.1-0.5s0-0.3,0.2-0.3c0.1,0,0.1,0.1,0.1,0.3
				c0,0.7,0,1.6,0,2.1c0,0.4,0,1.6,0,2.2c0,0.2,0,0.3-0.1,0.3s-0.2-0.1-0.2-0.3s0-0.4-0.1-0.6c-0.1-0.4-0.3-0.5-0.8-0.6
				c-0.5,0-0.9,0-3.2,0h-2.6c-1.9,0-2.9,0-3.1,0.3c-0.2,0.3-0.3,0.8-0.3,2c0,0.8,0,1.4,0.4,1.7c0.2,0.2,0.6,0.3,0.9,0.4
				c0.1,0,0.2,0.1,0.2,0.2c0,0.1-0.2,0.1-0.3,0.1c-0.2,0-1.3-0.1-1.7-0.2l0,0c0.1,0.6,0.6,0.9,1.3,1.2l9.4,3.9
				c0.4,0.2,0.6,0.3,0.6,0.4C206.7,42.7,206.6,42.8,206.2,42.9z"/>
		</g>
		<path class="st1" d="M155.1,163.9c1.6-0.4,3.2-2.4,1.6-5.9l-24.3-53.5L126.9,92l-24.6-58.2c-1.3-3.3-2.6-3.3-4,0L75.1,93.1
			c-0.5,1.1,0,1.5,0.8,1.5H119l3.5,7.9H73.1c-1.3,0-2.1,0.7-2.6,1.8l-15.8,38.9c-2.4,5.5-3.7,10.8-3.7,14.7c0,4.4,5.5,6.4,10,6.4
			h2.6c1.6,0,2.4,0.4,2.6,1h87.1C153.3,164.5,154.1,164.1,155.1,163.9z"/>
	</g>
</g>
</svg>
